# xmcd CD database file
#
# Track frame offsets:
#	150
#	30549
#	47636
#	69143
#	94201
#	117434
#	141900
#	163752
#
# Disc length: 2507 seconds
#
# Revision: 0
# Processed by: cddbd v1.5.2PL0 Copyright (c) Steve Scherf et al.
# Submitted via: CDex 1.70beta2
#
DISCID=6809c908
DTITLE=Serge Chaloff - Modern Jazz West Coast Jazz  CD 034
DYEAR=2008
DGENRE=Jazz
TTITLE0=I've Got The World On A String
TTITLE1=Thanks For The Memory
TTITLE2=The Goof And I
TTITLE3=A Handful Of Stars
TTITLE4=Susie's Blues (Funky Blues)
TTITLE5=All The Things You Are
TTITLE6=Stairway To The Stars
TTITLE7=How About You
EXTD=YEAR: 2008
EXTT0=
EXTT1=
EXTT2=
EXTT3=
EXTT4=
EXTT5=
EXTT6=
EXTT7=
PLAYORDER=
